PathFileType	4	(X/Y/Z)	/Users/niels/Desktop/University/Third Semester/Perception and Action/Exam/Gymnastics Motion Tracking/Code for Gym Tracking/Analyzed Data/Webcam_Backflip/id8_3_pure_Sports2D/id8_3_pure_Sports2D_px_person00.trc
DataRate	CameraRate	NumFrames	NumMarkers	Units	OrigDataRate	OrigDataStartFrame	OrigNumFrames
29.81132075471698	29.81132075471698	9	22	m	29.81132075471698	119	159
Frame#	Time	Hip			RHip			RKnee			RAnkle			RBigToe			RSmallToe			RHeel			LHip			LKnee			LAnkle			LBigToe			LSmallToe			LHeel			Neck			Head			Nose			RShoulder			RElbow			RWrist			LShoulder			LElbow			LWrist		
		X1	Y1	Z1	X2	Y2	Z2	X3	Y3	Z3	X4	Y4	Z4	X5	Y5	Z5	X6	Y6	Z6	X7	Y7	Z7	X8	Y8	Z8	X9	Y9	Z9	X10	Y10	Z10	X11	Y11	Z11	X12	Y12	Z12	X13	Y13	Z13	X14	Y14	Z14	X15	Y15	Z15	X16	Y16	Z16	X17	Y17	Z17	X18	Y18	Z18	X19	Y19	Z19	X20	Y20	Z20	X21	Y21	Z21	X22	Y22	Z22
119	3.991772151898734	0.9774038186576528	-0.5705160267410794	0.0	0.9752385738193153	-0.5697373095027004	0.0	0.9763894387320833	-0.664043190794789	0.0	0.964010806532537	-0.7583795091931373	0.0	0.9997701877833889	-0.7780205851274622	0.0	0.9858537765662269	-0.780969557541053	0.0	0.9551863889054034	-0.7741417161910382	0.0	0.9794738968159471	-0.5698588885508872	0.0	0.9802228580266313	-0.6640567993297812	0.0	0.968515331557871	-0.7539877414978787	0.0	1.0017495775278145	-0.7751521476298466	0.0	0.9990974592140326	-0.7714569502103066	0.0	0.958418051780377	-0.7682756407327016	0.0	0.9732151591725012	-0.43237503204076966	0.0	0.9785995457910976	-0.3690428150468547	0.0	0.9975321257167614	-0.3999177785767939	0.0	0.9642160585397992	-0.4542610889083745	0.0	0.9559089729326982	-0.5183580915515222	0.0	0.971538126458999	-0.5760935151234181	0.0	0.9755339496564487	-0.454412253731047	0.0	0.9699820310530004	-0.5138168799920123	0.0	0.9827088843268859	-0.5726793547446584	0.0
120	4.025316455696203	0.9774100443456328	-0.5678242567236238	0.0	0.9754095053762256	-0.5672448123824256	0.0	0.9760307849853517	-0.6625334588384448	0.0	0.9639398737419519	-0.7574398694327855	0.0	0.9993337644992816	-0.7777063347214404	0.0	0.9852224818420823	-0.7804888097811834	0.0	0.9553691705639681	-0.7732256301790198	0.0	0.9794782144875074	-0.567364786202852	0.0	0.980026987400305	-0.6627231649693333	0.0	0.9685136718375876	-0.752911522357683	0.0	1.0013970886083363	-0.7747439468263414	0.0	0.9989243902089229	-0.7710360899583397	0.0	0.9586595375581649	-0.7670176551914017	0.0	0.9739654562504202	-0.4306812547516425	0.0	0.978832633008576	-0.3671185897529657	0.0	0.9979564905815913	-0.3976622182176287	0.0	0.9651758231697721	-0.45216639780638107	0.0	0.9559320186397798	-0.5163986174324828	0.0	0.9726431953946089	-0.5729074522198728	0.0	0.9762298948099288	-0.45250818088854033	0.0	0.9710250964157086	-0.5114817531431773	0.0	0.9850211808129932	-0.5692569771748253	0.0
121	4.058860759493671	0.9770862868443719	-0.5678444496329008	0.0	0.9753044282467429	-0.5672821238499285	0.0	0.9755384011523158	-0.6635339125360067	0.0	0.9637726443727874	-0.7588991439348634	0.0	0.9989680872742636	-0.7794344608811223	0.0	0.9847949796255661	-0.7821173881007885	0.0	0.9556222850693024	-0.7746332853550413	0.0	0.9790616185924336	-0.5673536939086746	0.0	0.9795155721133753	-0.6638180130740619	0.0	0.9683578743989169	-0.7542375006369744	0.0	1.001334376565672	-0.7762804759197798	0.0	0.9987752588935621	-0.772726542205415	0.0	0.9588531014905692	-0.7681440257102644	0.0	0.9747843602749013	-0.43168386787649804	0.0	0.9791714202695714	-0.36778266034871965	0.0	0.998471473894715	-0.398023383705963	0.0	0.9662558919986455	-0.45277028015478765	0.0	0.9563748407096425	-0.5173073454587702	0.0	0.9745832511399642	-0.572504677872374	0.0	0.9767529252467086	-0.45316169960169034	0.0	0.9719928637408457	-0.5117987808596544	0.0	0.9873639648393039	-0.5683519817472177	0.0
122	4.092405063291139	0.9766000624360548	-0.5705076527796251	0.0	0.974989467824665	-0.5698170375888261	0.0	0.9749045257033283	-0.6668593764318473	0.0	0.9635377126786016	-0.7625685363524125	0.0	0.9987247062508386	-0.782994892625842	0.0	0.9847176248927644	-0.7856309917667932	0.0	0.9559144807882786	-0.7782409784104927	0.0	0.9784360644943368	-0.5697615765760032	0.0	0.9787106342216331	-0.6671165256763362	0.0	0.9680324695968787	-0.7578185562330929	0.0	1.001548348813631	-0.7795833971302356	0.0	0.9986371940029641	-0.776284566512787	0.0	0.9589358383588023	-0.7715622550722739	0.0	0.9756637536344144	-0.43520127486048166	0.0	0.9796756102767519	-0.3709072180146598	0.0	0.9990716749384871	-0.40094802529685525	0.0	0.9673576994105229	-0.4560117517112019	0.0	0.9573802099140515	-0.5209760032384991	0.0	0.9771480434819907	-0.5751850174465822	0.0	0.9772785059668312	-0.4563101400137896	0.0	0.9732723479565968	-0.5147449642787653	0.0	0.9900187025187139	-0.5699737550833698	0.0
123	4.125949367088608	0.9760807324468005	-0.5752771699467374	0.0	0.9745581454716605	-0.5744612975224044	0.0	0.9741759841089583	-0.6719738346786559	0.0	0.9632587567990137	-0.767960005774045	0.0	0.9986169411554919	-0.787950839997849	0.0	0.9850479832250566	-0.7905769841476277	0.0	0.9562090729167049	-0.7836343699390466	0.0	0.9777436630610238	-0.5741626604773038	0.0	0.9777150651140564	-0.6720633419164798	0.0	0.9675062610748311	-0.7631782540155317	0.0	1.0019587600477502	-0.7842589446611831	0.0	0.998503233287023	-0.7812291194771536	0.0	0.9588338423077072	-0.7768498595098977	0.0	0.976557311902484	-0.4407250755532691	0.0	0.9803573320819495	-0.3760469556663865	0.0	0.9997153491556648	-0.4060353433115137	0.0	0.9683492301243523	-0.4615231598204355	0.0	0.9590700945066345	-0.5269512311811768	0.0	0.9802088544130285	-0.5807820960332599	0.0	0.9779885921689898	-0.4615870914108076	0.0	0.975265213938989	-0.5199824707147594	0.0	0.9934728016939403	-0.573658460182477	0.0
124	4.159493670886076	0.9755734087796768	-0.5813397664372006	0.0	0.9740729936360627	-0.5804928075452962	0.0	0.9734565402848092	-0.6780960913619772	0.0	0.9629475879020976	-0.7743439231538072	0.0	0.9986161211748542	-0.7936818114384961	0.0	0.9857175245998966	-0.7963271268288724	0.0	0.9564432401398838	-0.7900964405389618	0.0	0.9770638252081004	-0.5798173551000864	0.0	0.9767255996343074	-0.6779145285669708	0.0	0.966820706928997	-0.7695530538393885	0.0	1.002505567080764	-0.7896933637440279	0.0	0.9984261633803736	-0.7868890476797595	0.0	0.9585712396303904	-0.7832615219790874	0.0	0.9774058810453953	-0.4474696396356595	0.0	0.9811637133852869	-0.38244710644767155	0.0	1.000369668107523	-0.4125324007266637	0.0	0.9691178639378936	-0.468612571247499	0.0	0.9614296116537699	-0.5344544133269173	0.0	0.9836019614833325	-0.5885211823224888	0.0	0.9789909088663687	-0.4682765534913435	0.0	0.978080041940615	-0.526757664171769	0.0	0.9979808421603987	-0.5785696452961171	0.0
125	4.193037974683544	0.9750860208773545	-0.5877782583209292	0.0	0.9735815681335611	-0.5869686361692651	0.0	0.9728681919638837	-0.6843258550312468	0.0	0.9626047264148163	-0.7808397874747458	0.0	0.9986346417062688	-0.7994554549669008	0.0	0.9865381183117227	-0.8021502853340711	0.0	0.956542130429252	-0.7966874313650953	0.0	0.9764864857212637	-0.5858149037793475	0.0	0.9759717811924212	-0.6838453093840741	0.0	0.9661142213281542	-0.77600894778727	0.0	1.0031452797983096	-0.7951312253561393	0.0	0.9984692229111287	-0.7925001258929363	0.0	0.9582705711548279	-0.7898341208522618	0.0	0.9781670563560546	-0.45447300212006403	0.0	0.9819963296810241	-0.3891435248261534	0.0	1.0010239701712742	-0.41945520608648434	0.0	0.9696069582794555	-0.4763020373273178	0.0	0.9642620224964776	-0.5424853626263773	0.0	0.9870797870007392	-0.5971424687653567	0.0	0.9802468282396022	-0.47537982876814855	0.0	0.9814135142058362	-0.5340029069132928	0.0	1.0032392604290536	-0.583789796850848	0.0
126	4.226582278481012	0.9747118507939305	-0.5936243070791095	0.0	0.9731881340526741	-0.5928458112748778	0.0	0.9724947438910022	-0.6897673741758863	0.0	0.9622277268499685	-0.7865012729761232	0.0	0.9985819248343604	-0.8044679651497733	0.0	0.9872764913920009	-0.8072475311166657	0.0	0.9564609744487578	-0.802384941015598	0.0	0.976197181491894	-0.591198691214104	0.0	0.9756064551706191	-0.689025719175248	0.0	0.9655480296729853	-0.7815953111039708	0.0	1.0037891627469857	-0.7997875976551195	0.0	0.9986583257147649	-0.7972949442033267	0.0	0.9580555283703824	-0.7955423184120802	0.0	0.9788358412263706	-0.46071299368907154	0.0	0.9827712486279075	-0.39512431118331615	0.0	1.0016816621014621	-0.42575915667412906	0.0	0.9698425557429781	-0.4834296567921208	0.0	0.9672202077703124	-0.5499128203078102	0.0	0.9903574499900535	-0.6051886493245456	0.0	0.9816082261358614	-0.4817751978383975	0.0	0.9847225394662188	-0.5405663024524584	0.0	1.0083810845230643	-0.5885624154517096	0.0
127	4.260126582278481	0.9746527218665629	-0.5979068500932216	0.0	0.9730474129832235	-0.5970893180375448	0.0	0.9723497773103125	-0.6936256770122413	0.0	0.9618352817679154	-0.7904312946796187	0.0	0.9984702504873411	-0.80790584823116	0.0	0.9877678570070917	-0.81080397700168	0.0	0.9562256859134182	-0.8062438413653705	0.0	0.9764337048204079	-0.5950477604289053	0.0	0.9756512392362799	-0.6927045848105721	0.0	0.9652307751783477	-0.785469111738783	0.0	1.0043127090875257	-0.802939130294667	0.0	0.998999229152791	-0.800562664964652	0.0	0.9579688874983506	-0.7994638967091263	0.0	0.9794477085303389	-0.4652322622090103	0.0	0.9834598970310225	-0.399482206893232	0.0	1.0023599432655699	-0.4304755227546503	0.0	0.9699250392419371	-0.48882233545742293	0.0	0.9699224129394455	-0.5555657295017257	0.0	0.993206690319916	-0.6112868863029565	0.0	0.9829374186598474	-0.486416870028291	0.0	0.9875307779791553	-0.5454311486772933	0.0	1.0123349682754583	-0.5923313332361226	0.0
